<?xml version="1.0" encoding="utf-8"?>
<!-- Generator: Adobe Illustrator 20.1.0, SVG Export Plug-In . SVG Version: 6.00 Build 0)  -->
<svg version="1.1" id="Capa_1" xmlns="http://www.w3.org/2000/svg" xmlns:xlink="http://www.w3.org/1999/xlink" x="0px" y="0px"
	 viewBox="0 0 60 60" style="enable-background:new 0 0 60 60;" xml:space="preserve">
<style type="text/css">
	.st0{fill:none;stroke:#FFFFFF;stroke-miterlimit:10;}
</style>
<g id="_x31_Oz05I_1_">
	<g>
		<path class="st0" d="M55.4,31.3c-1.3,2.1-2.7,4-3.8,6.2c-1.3,2.7-2.4,5.6-3.5,8.4c-0.1,0.3-0.2,0.6-0.3,0.8
			c-11.8-3.4-23.6-3.4-35.5,0c0,0-0.2-0.3-0.3-0.5C10.6,41,8.1,36.3,5,32c-0.2-0.2-0.2-0.5-0.4-0.7c0,0,0,0,0,0
			c0.8,0.7,1.5,1.5,2.3,2.1c0.9,0.7,1.8,1.4,2.9,1.9c1.9,0.8,3.5,0.1,4-1.9c0.4-1.7,0.4-3.5,0.4-5.3c0-1-0.3-2.1-0.5-3.1
			c-0.2-1.1-0.4-1.9-1.8-2.2c-1.3-0.2-1.8-1.8-1.2-3c0.5-1.1,1.9-1.6,3.1-1c1.1,0.6,1.5,2,0.9,3.1c-0.2,0.4-0.5,0.7-0.9,1.2
			c1.7,3.2,3.4,6.4,6.4,8.6c2.3,1.7,4.4,1.4,5.8-1.1c1-1.7,1.6-3.6,2.2-5.5c0.6-1.7,0.9-3.6,1.3-5.4c0.1-0.3,0.1-0.6,0.1-1
			c-1.4-0.8-2.6-1.8-1.9-3.7c0.4-1.2,1.3-1.7,2.6-1.7c1.3,0.1,2.1,0.7,2.4,1.9c0.4,1.7-0.5,2.7-2.1,3.4c0.9,4.3,1.5,8.6,4,12.4
			c1.3,2,3.3,2.2,5.3,0.8c3.2-2.2,4.9-5.5,6.6-8.8c-0.4-0.5-0.7-0.8-0.9-1.2c-0.6-1.2-0.2-2.6,1-3.1c1.2-0.5,2.5,0.1,3,1.2
			c0.5,1.2-0.1,2.7-1.4,3c-1.2,0.2-1.5,0.9-1.6,1.9c-0.3,2.1-0.6,4.3-0.7,6.4c0,0.9,0.3,1.9,0.6,2.8c0.6,1.4,1.9,2,3.3,1.5
			c1.2-0.4,2.3-1.2,3.3-1.9C53.8,32.9,54.6,32,55.4,31.3L55.4,31.3z"/>
		<path class="st0" d="M4.6,31.3c-0.7-0.3-1.4-0.7-2.1-1c-1-0.4-1.6-1-1.3-2.1c0.2-0.9,1.2-1.6,2.1-1.3c1,0.4,1.4,1.1,1.2,2.2
			C4.4,29.8,4.6,30.6,4.6,31.3C4.6,31.3,4.6,31.3,4.6,31.3z"/>
		<path class="st0" d="M55.4,31.3c0.1-0.7,0.3-1.4,0.2-2.1c-0.1-1.1,0.3-1.8,1.2-2.2c0.9-0.3,1.9,0.3,2.1,1.3
			c0.2,1.1-0.4,1.7-1.3,2.1C56.8,30.6,56.1,31,55.4,31.3C55.4,31.3,55.4,31.3,55.4,31.3z"/>
	</g>
</g>
</svg>
