<?xml version="1.0" encoding="utf-8"?>
<!-- Generator: Adobe Illustrator 20.1.0, SVG Export Plug-In . SVG Version: 6.00 Build 0)  -->
<svg version="1.1" id="Capa_1" xmlns="http://www.w3.org/2000/svg" xmlns:xlink="http://www.w3.org/1999/xlink" x="0px" y="0px"
	 viewBox="0 0 60 60" style="enable-background:new 0 0 60 60;" xml:space="preserve">
<style type="text/css">
	.st0{fill:none;stroke:#FFFFFF;stroke-width:2;stroke-miterlimit:10;}
</style>
<g id="_x31_Oz05I_1_">
	<g>
		<path class="st0" d="M53.8,32.2c-1.3,2-1.7,2.9-2.7,5.1c-1.3,2.6-2.3,5.5-3.4,8.2c-0.1,0.3-0.2,0.6-0.3,0.8
			c-11.5-3.3-23-3.3-34.7,0c0,0-0.2-0.3-0.3-0.5c-1.4-5.1-3.8-9.7-6.8-13.9c-0.2-0.2-0.2-0.5-0.4-0.7l0,0c0.8,0.7,1.5,1.5,2.2,2
			c0.9,0.7,1.8,1.4,2.8,1.9c1.9,0.8,3.4,0.1,3.9-1.9c0.4-1.7,0.4-3.4,0.4-5.2c0-1-0.3-2-0.5-3c-0.2-1.1-0.4-1.9-1.8-2.1
			c-1.3-0.2-1.8-1.8-1.2-2.9c0.5-1.1,1.9-1.6,3-1c1.1,0.6,1.5,2,0.9,3c-0.2,0.4-0.5,0.7-0.9,1.2c1.7,3.1,3.3,6.2,6.2,8.4
			c2.2,1.7,4.3,1.4,5.7-1.1c1-1.7,1.6-3.5,2.1-5.4c0.6-1.7,0.9-3.5,1.3-5.3c0.1-0.3,0.1-0.6,0.1-1c-1.4-0.8-2.5-1.8-1.9-3.6
			c0.4-1.2,1.3-1.7,2.5-1.7c1.3,0.1,2,0.7,2.3,1.9c0.4,1.7-0.5,2.6-2,3.3c0.9,4.2,1.5,8.4,3.9,12.1c1.3,2,3.2,2.1,5.2,0.8
			c3.1-2.1,4.8-5.4,6.4-8.6c-0.4-0.5-0.7-0.8-0.9-1.2c-0.6-1.2-0.2-2.5,1-3c1.2-0.5,2.4,0.1,2.9,1.2c0.5,1.2-0.1,2.6-1.4,2.9
			c-1.2,0.2-1.5,0.9-1.6,1.9c-0.3,2-0.6,4.2-0.7,6.2c0,0.9,0.3,1.9,0.6,2.7c0.6,1.4,1.9,2,3.2,1.5c1.2-0.4,2.2-1.2,3.2-1.9
			c0.7-0.7,1.5-1.6,2.2-2.2L53.8,32.2z"/>
		<path class="st0" d="M5.2,31.3c-0.7-0.3-1.4-0.7-2-1c-1-0.4-1.6-1-1.3-2c0.2-0.9,1.2-1.6,2-1.3c1,0.4,1.4,1.1,1.2,2.1
			C5,29.8,5.2,30.6,5.2,31.3L5.2,31.3z"/>
		<path class="st0" d="M54.8,31.3c0.1-0.7,0.3-1.4,0.2-2c-0.1-1.1,0.3-1.8,1.2-2.1c0.9-0.3,1.9,0.3,2,1.3c0.2,1.1-0.4,1.7-1.3,2
			C56.2,30.6,55.5,31,54.8,31.3L54.8,31.3z"/>
	</g>
</g>
</svg>
