<?xml version="1.0" encoding="utf-8"?>
<!-- Generator: Adobe Illustrator 20.1.0, SVG Export Plug-In . SVG Version: 6.00 Build 0)  -->
<svg version="1.1" id="Capa_1" xmlns="http://www.w3.org/2000/svg" xmlns:xlink="http://www.w3.org/1999/xlink" x="0px" y="0px"
	 viewBox="0 0 204.1 204.1" style="enable-background:new 0 0 204.1 204.1;" xml:space="preserve">
<style type="text/css">
	.st0{fill:#FFFFFF;}
</style>
<g>
	<g>
		<path class="st0" d="M171.6,153.2h-5.2v-11h0.3c0.8,0,1.5-0.7,1.5-1.5v-15.3h3.3c0.6,0,1.2-0.4,1.4-1c0.2-0.6,0-1.3-0.5-1.7
			c-4.3-3.4-15.5-13.6-15.5-20.2V96l10.3-4.9c0,0,0,0,0,0c0.1,0,0.1-0.1,0.2-0.1c0,0,0.1,0,0.1-0.1c0,0,0.1-0.1,0.1-0.1
			c0,0,0,0,0.1-0.1c0.1-0.1,0.2-0.3,0.3-0.5c0,0,0-0.1,0-0.1c0-0.1,0-0.1,0-0.2c0,0,0,0,0,0c0-0.1,0-0.1,0-0.2c0,0,0-0.1,0-0.1
			c0,0,0-0.1,0-0.1c0,0,0-0.1,0-0.1c0,0,0-0.1,0-0.1c0-0.1,0-0.1-0.1-0.2c0,0,0,0,0,0c0,0,0-0.1-0.1-0.1c0,0-0.1-0.1-0.1-0.1
			c0,0-0.1-0.1-0.1-0.1c0,0-0.1-0.1-0.1-0.1c0,0-0.1-0.1-0.1-0.1c0,0-0.1-0.1-0.1-0.1c0,0-0.1,0-0.1-0.1c0,0-0.1,0-0.1-0.1
			c-0.1,0-0.1,0-0.2,0c0,0-0.1,0-0.1,0l-11.2-2c0,0-0.1,0-0.1,0c0,0-0.1,0-0.1,0c0,0,0,0,0,0c-0.1,0-0.1,0-0.2,0c0,0-0.1,0-0.1,0
			c0,0-0.1,0-0.1,0c0,0-0.1,0-0.1,0c0,0-0.1,0-0.1,0.1c0,0-0.1,0-0.1,0.1c0,0-0.1,0.1-0.1,0.1c0,0-0.1,0-0.1,0.1
			c0,0-0.1,0.1-0.1,0.1c0,0-0.1,0.1-0.1,0.1c0,0,0,0.1-0.1,0.1c0,0,0,0.1-0.1,0.1c0,0,0,0.1,0,0.1c0,0.1,0,0.1,0,0.2c0,0,0,0,0,0
			c0,0,0,0.1,0,0.1c0,0,0,0.1,0,0.1v14.7c0,5.3-7.1,12.8-12.1,17.4V75.2h0.4c3.5,0,6.3-2.8,6.3-6.3c0-3.5-2.8-6.3-6.3-6.3H142V52.1
			h0.2c0.8,0,1.5-0.7,1.5-1.5V36.5h3c0.6,0,1.2-0.4,1.4-1c0.2-0.6,0-1.3-0.5-1.7c-4-3.1-14.3-12.6-14.3-18.7V9.3l9.5-4.6
			c0,0,0,0,0,0c0.1,0,0.1-0.1,0.2-0.1c0,0,0.1,0,0.1-0.1c0,0,0.1-0.1,0.1-0.1c0,0,0,0,0.1-0.1c0.1-0.1,0.2-0.3,0.3-0.5
			c0,0,0-0.1,0-0.1c0,0,0-0.1,0-0.2c0,0,0,0,0,0c0-0.1,0-0.1,0-0.2c0,0,0-0.1,0-0.1c0,0,0-0.1,0-0.1c0-0.1,0-0.1,0-0.1
			c0,0,0-0.1,0-0.1c0-0.1,0-0.1-0.1-0.2c0,0,0,0,0,0c0,0,0-0.1-0.1-0.1c0,0-0.1-0.1-0.1-0.1c0,0-0.1-0.1-0.1-0.1
			c0,0-0.1-0.1-0.1-0.1c0,0-0.1-0.1-0.1-0.1c0,0-0.1-0.1-0.1-0.1c0,0-0.1,0-0.1-0.1c0,0-0.1,0-0.1-0.1c-0.1,0-0.1,0-0.2-0.1
			c0,0-0.1,0-0.1,0L132.1,0c0,0-0.1,0-0.1,0c0,0-0.1,0-0.1,0c0,0,0,0,0,0c-0.1,0-0.1,0-0.2,0c0,0-0.1,0-0.1,0c0,0-0.1,0-0.1,0
			c-0.1,0-0.1,0-0.1,0.1c0,0-0.1,0-0.1,0.1c-0.1,0-0.1,0.1-0.2,0.1c0,0-0.1,0.1-0.1,0.1c0,0-0.1,0.1-0.1,0.1c0,0-0.1,0.1-0.1,0.1
			c0,0-0.1,0.1-0.1,0.1c0,0,0,0.1-0.1,0.1c0,0-0.1,0.1-0.1,0.1c0,0,0,0.1,0,0.1c0,0.1,0,0.1,0,0.2c0,0,0,0,0,0c0,0,0,0.1,0,0.1
			c0,0,0,0.1,0,0.1v13.6c0,6.1-10.3,15.6-14.3,18.7c-0.5,0.4-0.7,1.1-0.5,1.7c0.2,0.6,0.8,1,1.4,1h3v14.1c0,0.8,0.7,1.5,1.5,1.5h0.2
			v10.5h-0.3c-3.5,0-6.3,2.8-6.3,6.3c0,3.3,2.6,6,5.8,6.3v27.6l-11.1-10.5v-17h3.4c0.6,0,1.1-0.4,1.4-0.9c0.2-0.5,0.1-1.2-0.3-1.6
			c-0.1-0.1-10.1-10.9-10.1-18.1v-5.7l7.1-4.3c0,0,0,0,0,0c0.1,0,0.1-0.1,0.2-0.1c0,0,0,0,0.1-0.1c0.1-0.1,0.1-0.1,0.2-0.2
			c0,0,0,0,0,0c0-0.1,0.1-0.1,0.1-0.2c0,0,0-0.1,0-0.1c0,0,0-0.1,0-0.1c0,0,0,0,0,0c0-0.1,0-0.1,0-0.2c0,0,0-0.1,0-0.1
			c0-0.1,0-0.1,0-0.2c0,0,0-0.1,0-0.1c0,0,0-0.1,0-0.1c0,0,0-0.1,0-0.1c0,0,0-0.1-0.1-0.1c0,0,0-0.1-0.1-0.1c0,0,0,0,0,0
			c0,0,0,0-0.1-0.1c0,0-0.1-0.1-0.1-0.1c0,0-0.1-0.1-0.1-0.1c0,0-0.1-0.1-0.1-0.1c0,0-0.1-0.1-0.1-0.1c0,0-0.1,0-0.1-0.1
			c0,0-0.1,0-0.1-0.1c0,0-0.1,0-0.1,0l-7.8-2.4c-0.8-0.2-1.6,0.2-1.9,1c-0.1,0.3-0.1,0.5,0,0.8c0,0.1,0,0.2,0,0.3v13.2
			c0,6-7.8,15.1-10.8,18.1c-0.4,0.4-0.6,1.1-0.3,1.6c0.2,0.6,0.8,0.9,1.4,0.9h2.9v34.7c-3.2-3.7-9.2-11.7-9.2-17.1v-5.7l7.1-4.3
			c0,0,0,0,0,0c0.1,0,0.1-0.1,0.2-0.1c0,0,0,0,0.1-0.1c0.1-0.1,0.1-0.1,0.2-0.2c0,0,0,0,0,0c0-0.1,0.1-0.1,0.1-0.2c0,0,0-0.1,0-0.1
			c0,0,0-0.1,0-0.1c0,0,0,0,0,0c0-0.1,0-0.1,0-0.2c0,0,0-0.1,0-0.1c0,0,0-0.1,0-0.1c0,0,0-0.1,0-0.1c0,0,0-0.1,0-0.1
			c0,0,0-0.1,0-0.1c0,0,0-0.1-0.1-0.1c0,0,0-0.1-0.1-0.1c0,0,0,0,0,0c0,0,0,0-0.1-0.1c0,0-0.1-0.1-0.1-0.1c0,0-0.1-0.1-0.1-0.1
			c0,0-0.1-0.1-0.1-0.1c0,0-0.1-0.1-0.1-0.1c0,0-0.1,0-0.1-0.1c0,0-0.1,0-0.2-0.1c0,0-0.1,0-0.1,0l-7.8-2.4c-0.8-0.2-1.6,0.2-1.9,1
			c-0.1,0.3-0.1,0.5,0,0.8c0,0.1,0,0.2,0,0.3v13.2c0,6-7.8,15.1-10.8,18.1c-0.3,0.3-0.4,0.7-0.4,1.1c0,0,0,0,0,0v1
			c-5.2-4.5-17-15.5-17-23.4v-8.2l13.1-6.2c0,0,0,0,0,0c0.1,0,0.1-0.1,0.2-0.1c0,0,0.1,0,0.1-0.1c0.1,0,0.1-0.1,0.1-0.1
			c0,0,0,0,0.1-0.1c0.1-0.1,0.2-0.3,0.3-0.5c0,0,0-0.1,0-0.1c0-0.1,0-0.1,0-0.2c0,0,0,0,0,0c0-0.1,0-0.1,0-0.2c0,0,0-0.1,0-0.1
			c0,0,0-0.1,0-0.1c0-0.1,0-0.1,0-0.2c0,0,0-0.1,0-0.1c0-0.1,0-0.1-0.1-0.2c0,0,0,0,0,0c0,0,0-0.1-0.1-0.1c0-0.1-0.1-0.1-0.1-0.1
			c0,0-0.1-0.1-0.1-0.1c0,0-0.1-0.1-0.1-0.1c0,0-0.1-0.1-0.1-0.1c0,0-0.1-0.1-0.1-0.1c0,0-0.1,0-0.1-0.1c0,0-0.1,0-0.1-0.1
			c-0.1,0-0.1,0-0.2-0.1c0,0-0.1,0-0.1,0l-13.9-2.5c0,0-0.1,0-0.1,0c0,0-0.1,0-0.1,0c0,0,0,0,0,0c-0.1,0-0.1,0-0.1,0
			c-0.1,0-0.1,0-0.2,0c0,0-0.1,0-0.1,0c-0.1,0-0.1,0-0.2,0.1c0,0-0.1,0-0.1,0.1c-0.1,0-0.1,0.1-0.2,0.1c0,0-0.1,0.1-0.1,0.1
			c0,0-0.1,0.1-0.1,0.1c0,0-0.1,0.1-0.1,0.1c0,0-0.1,0.1-0.1,0.1c0,0,0,0.1-0.1,0.1c0,0-0.1,0.1-0.1,0.1c0,0,0,0.1,0,0.1
			c0,0.1,0,0.1,0,0.2c0,0,0,0,0,0c0,0,0,0.1,0,0.1c0,0,0,0.1,0,0.1v18.3c0,10.1-19.2,25.3-19.4,25.4c-0.5,0.4-0.7,1.1-0.5,1.7
			c0.2,0.6,0.8,1,1.4,1h4.5v19.4c0,0.8,0.7,1.5,1.5,1.5h0.8v14.5h-4.7c-0.8,0-1.5,0.7-1.5,1.5v47.9c0,0.8,0.7,1.5,1.5,1.5h53.1
			c0.8,0,1.5-0.7,1.5-1.5v-19.7c0-7.6,6.2-13.8,13.8-13.8c7.6,0,13.8,6.2,13.8,13.8v19.7c0,0.8,0.7,1.5,1.5,1.5h53.1
			c0.8,0,1.5-0.7,1.5-1.5v-47.9C173.1,153.9,172.4,153.2,171.6,153.2z M133.3,3.3l4.1,0.7l-4.1,1.9V3.3z M131.8,20.6
			c2.5,5,7.5,10,10.8,13h-0.4h-20.8H121C124.3,30.6,129.3,25.5,131.8,20.6z M140.7,36.5v12.6h-0.2h-17.4h-0.2V36.5H140.7z M139,52.1
			v10h-14.4v-10H139z M104.1,42.8l2.7,0.9l-2.7,1.7V42.8z M102.6,60.7c1.9,4.5,5.1,8.8,7.3,11.5h-15
			C97.1,69.5,100.6,65.1,102.6,60.7z M165.2,139.2h-0.3h-18.7h-0.3v-13.9h19.4L165.2,139.2L165.2,139.2z M157,89.5l4.9,0.9l-4.9,2.3
			V89.5z M155.5,108c2.7,5.5,8.4,11.1,12,14.3h-0.8h-22.4h-0.8C147.2,119.1,152.8,113.5,155.5,108z M142.8,125.3v15.3
			c0,0.8,0.7,1.5,1.5,1.5h0.3v11h-2.8v-27.9L142.8,125.3L142.8,125.3z M73.9,137.3h65v4.1h-65V137.3z M118,68.9
			c0-1.8,1.5-3.3,3.3-3.3h21c1.8,0,3.3,1.5,3.3,3.3c0,1.8-1.5,3.3-3.3,3.3h-21C119.5,72.2,118,70.7,118,68.9z M121.3,107.3
			c0.4,0.4,1.1,0.5,1.6,0.3c0.5-0.2,0.9-0.8,0.9-1.4V75.3h15.1v47c0,0.5,0,1.5,0,2.9v9h-65v-20.7h21.9c0.8,0,1.5-0.7,1.5-1.5V75.3
			h9.4v17.5c0,0.4,0.2,0.8,0.5,1.1L121.3,107.3z M85.2,81l2.7,0.9l-2.7,1.7V81z M83.6,99c1.9,4.5,5.1,8.8,7.3,11.5h-15
			C78.2,107.8,81.6,103.4,83.6,99z M70.9,153.2h-5.3v-14.5h0.8c0.8,0,1.5-0.7,1.5-1.5v-19.4h3V153.2L70.9,153.2z M54,73.2l7.6,1.4
			L54,78.2V73.2z M52.5,95.8c3.3,7.4,11.3,15.1,15.8,19h-1.9H38.6h-1.9C41.2,110.9,49.2,103.2,52.5,95.8z M64.9,117.8v18h-0.8H40.9
			h-0.8v-18H64.9z M170.1,201.1h-50.1v-18.2c0-9.3-7.6-16.8-16.8-16.8c-9.3,0-16.8,7.6-16.8,16.8v18.2H36.2v-44.9h4.7
			c0.8,0,1.5-0.7,1.5-1.5v-16h20.3v16c0,0.8,0.7,1.5,1.5,1.5h8.3c0.8,0,1.5-0.7,1.5-1.5v-10.3h65v10.3c0,0.8,0.7,1.5,1.5,1.5h5.7
			c0.8,0,1.5-0.7,1.5-1.5v-12.5h15.7v12.5c0,0.8,0.7,1.5,1.5,1.5h5.2L170.1,201.1L170.1,201.1z"/>
		<path class="st0" d="M52.5,133.7c2.7,0,4.8-2.2,4.8-4.8v-4c0-2.7-2.2-4.8-4.8-4.8c-2.7,0-4.8,2.2-4.8,4.8v4
			C47.7,131.6,49.8,133.7,52.5,133.7z M50.7,125c0-1,0.8-1.8,1.8-1.8c1,0,1.8,0.8,1.8,1.8v4c0,1-0.8,1.8-1.8,1.8
			c-1,0-1.8-0.8-1.8-1.8V125z"/>
		<path class="st0" d="M52.5,144.4c-2.7,0-4.8,2.2-4.8,4.8v4c0,2.7,2.2,4.8,4.8,4.8c2.7,0,4.8-2.2,4.8-4.8v-4
			C57.3,146.6,55.1,144.4,52.5,144.4z M54.3,153.2c0,1-0.8,1.8-1.8,1.8c-1,0-1.8-0.8-1.8-1.8v-4c0-1,0.8-1.8,1.8-1.8
			c1,0,1.8,0.8,1.8,1.8V153.2z"/>
		<path class="st0" d="M155.5,144.4c-2.7,0-4.8,2.2-4.8,4.8v4c0,2.7,2.2,4.8,4.8,4.8c2.7,0,4.8-2.2,4.8-4.8v-4
			C160.3,146.6,158.2,144.4,155.5,144.4z M157.4,153.2c0,1-0.8,1.8-1.8,1.8c-1,0-1.8-0.8-1.8-1.8v-4c0-1,0.8-1.8,1.8-1.8
			c1,0,1.8,0.8,1.8,1.8V153.2z"/>
		<path class="st0" d="M131.8,90.7c2.7,0,4.8-2.2,4.8-4.8v-4c0-2.7-2.2-4.8-4.8-4.8s-4.8,2.2-4.8,4.8v4
			C127,88.5,129.2,90.7,131.8,90.7z M130,81.9c0-1,0.8-1.8,1.8-1.8c1,0,1.8,0.8,1.8,1.8v4c0,1-0.8,1.8-1.8,1.8c-1,0-1.8-0.8-1.8-1.8
			V81.9z"/>
		<path class="st0" d="M131.8,107.2c2.7,0,4.8-2.2,4.8-4.8v-4c0-2.7-2.2-4.8-4.8-4.8s-4.8,2.2-4.8,4.8v4
			C127,105,129.2,107.2,131.8,107.2z M130,98.4c0-1,0.8-1.8,1.8-1.8c1,0,1.8,0.8,1.8,1.8v4c0,1-0.8,1.8-1.8,1.8
			c-1,0-1.8-0.8-1.8-1.8V98.4z"/>
		<path class="st0" d="M82.3,117c-2.7,0-4.8,2.2-4.8,4.8v4c0,2.7,2.2,4.8,4.8,4.8c2.7,0,4.8-2.2,4.8-4.8v-4
			C87.1,119.2,84.9,117,82.3,117z M84.1,125.8c0,1-0.8,1.8-1.8,1.8c-1,0-1.8-0.8-1.8-1.8v-4c0-1,0.8-1.8,1.8-1.8
			c1,0,1.8,0.8,1.8,1.8V125.8z"/>
		<path class="st0" d="M97.4,117c-2.7,0-4.8,2.2-4.8,4.8v4c0,2.7,2.2,4.8,4.8,4.8c2.7,0,4.8-2.2,4.8-4.8v-4
			C102.2,119.2,100,117,97.4,117z M99.2,125.8c0,1-0.8,1.8-1.8,1.8c-1,0-1.8-0.8-1.8-1.8v-4c0-1,0.8-1.8,1.8-1.8
			c1,0,1.8,0.8,1.8,1.8V125.8z"/>
	</g>
</g>
</svg>
